<svg xmlns="http://www.w3.org/2000/svg" width="1200" height="360" viewBox="0 0 1200 360" role="img" aria-label="Live GitHub stats for Amir1ted"><defs><style><![CDATA[.sans{font-family:Inter,'Segoe UI',Arial,sans-serif}.mono{font-family:'SFMono-Regular',Consolas,monospace}.p{animation:p 3s ease-in-out infinite}@keyframes p{0%,100%{opacity:.25}50%{opacity:1}}]]></style></defs><rect width="1200" height="360" fill="#000"/><rect x="14" y="14" width="1172" height="332" rx="18" fill="#040404" stroke="#242424"/><text x="50" y="57" class="mono" fill="#777" font-size="12" letter-spacing="3">GITHUB / LIVE SIGNAL</text><text x="1150" y="57" text-anchor="end" class="mono" fill="#5f5f5f" font-size="10">SYNCED 2026-09-08 UTC</text><circle cx="1125" cy="53" r="3.5" fill="#eee" class="p"/><path d="M50 82H1150" stroke="#242424"/><g transform="translate(50,112)"><rect width="250" height="118" rx="12" fill="#080808" stroke="#2b2b2b"/><text x="18" y="29" class="mono" fill="#747474" font-size="10" letter-spacing="1.8">TOTAL CONTRIBUTIONS</text><text x="18" y="76" class="sans" fill="#f4f4f4" font-size="35" font-weight="750">48</text><text x="18" y="99" class="mono" fill="#6d6d6d" font-size="9.5">rolling GitHub calendar</text></g><g transform="translate(330,112)"><rect width="250" height="118" rx="12" fill="#080808" stroke="#2b2b2b"/><text x="18" y="29" class="mono" fill="#747474" font-size="10" letter-spacing="1.8">CURRENT STREAK</text><text x="18" y="76" class="sans" fill="#f4f4f4" font-size="35" font-weight="750">2D</text><text x="18" y="99" class="mono" fill="#6d6d6d" font-size="9.5">consecutive active days</text></g><g transform="translate(610,112)"><rect width="250" height="118" rx="12" fill="#080808" stroke="#2b2b2b"/><text x="18" y="29" class="mono" fill="#747474" font-size="10" letter-spacing="1.8">LONGEST STREAK</text><text x="18" y="76" class="sans" fill="#f4f4f4" font-size="35" font-weight="750">3D</text><text x="18" y="99" class="mono" fill="#6d6d6d" font-size="9.5">within the current calendar</text></g><g transform="translate(890,112)"><rect width="250" height="118" rx="12" fill="#080808" stroke="#2b2b2b"/><text x="18" y="29" class="mono" fill="#747474" font-size="10" letter-spacing="1.8">TOTAL STARS</text><text x="18" y="76" class="sans" fill="#f4f4f4" font-size="35" font-weight="750">9</text><text x="18" y="99" class="mono" fill="#6d6d6d" font-size="9.5">public owned repositories</text></g><g class="mono" font-size="11" fill="#8a8a8a"><text x="58" y="292">REPOSITORIES <tspan fill="#ececec">5</tspan></text><text x="330" y="292">FOLLOWERS <tspan fill="#ececec">2</tspan></text><text x="610" y="292">ACTIVE DAYS <tspan fill="#ececec">9</tspan></text><text x="890" y="292">PEAK DAY <tspan fill="#ececec">9</tspan></text></g><path d="M50 315H1150" stroke="#1d1d1d"/><text x="600" y="335" text-anchor="middle" class="mono" fill="#505050" font-size="9.5">generated inside this repository · no external stats card service</text></svg>